<svg width="97" height="97" viewBox="0 0 97 97" fill="none" xmlns="http://www.w3.org/2000/svg">
<path fill-rule="evenodd" clip-rule="evenodd" d="M48.5 81.4434C66.6941 81.4434 81.4434 66.6941 81.4434 48.5C81.4434 30.3059 66.6941 15.5566 48.5 15.5566C30.3059 15.5566 15.5566 30.3059 15.5566 48.5C15.5566 66.6941 30.3059 81.4434 48.5 81.4434ZM48.5 97C75.2858 97 97 75.2858 97 48.5C97 21.7142 75.2858 0 48.5 0C21.7142 0 0 21.7142 0 48.5C0 75.2858 21.7142 97 48.5 97Z" fill="#34A852"/>
<path d="M78.2406 86.8194L40.0354 48.7286H60.2819L88.0779 76.5246C86.4764 79.1555 81.329 84.7605 78.2406 86.8194Z" fill="#34A852"/>
<mask id="mask0_64:640" style="mask-type:alpha" maskUnits="userSpaceOnUse" x="0" y="0" width="97" height="97">
<path fill-rule="evenodd" clip-rule="evenodd" d="M48.5 81.4434C66.6941 81.4434 81.4434 66.6941 81.4434 48.5C81.4434 30.3059 66.6941 15.5566 48.5 15.5566C30.3059 15.5566 15.5566 30.3059 15.5566 48.5C15.5566 66.6941 30.3059 81.4434 48.5 81.4434ZM48.5 97C75.2858 97 97 75.2858 97 48.5C97 21.7142 75.2858 0 48.5 0C21.7142 0 0 21.7142 0 48.5C0 75.2858 21.7142 97 48.5 97Z" fill="white"/>
</mask>
<g mask="url(#mask0_64:640)">
<path d="M78.2406 86.8194L40.0354 48.7286H60.2819L88.0779 76.5246C86.4764 79.1555 81.329 84.7605 78.2406 86.8194Z" fill="#FF0000"/>
</g>
</svg>
