<svg width="24" height="25" viewBox="0 0 24 25" fill="none" xmlns="http://www.w3.org/2000/svg">
<path d="M6 2.99316L3 6.99316V20.9932C3 21.5236 3.21071 22.0323 3.58579 22.4074C3.96086 22.7824 4.46957 22.9932 5 22.9932H19C19.5304 22.9932 20.0391 22.7824 20.4142 22.4074C20.7893 22.0323 21 21.5236 21 20.9932V6.99316L18 2.99316H6Z" stroke="#3A494E" stroke-linecap="round" stroke-linejoin="round"/>
<path d="M3 6.99316H21" stroke="#3A494E" stroke-linecap="round" stroke-linejoin="round"/>
<path d="M16 10.9932C16 12.054 15.5786 13.0714 14.8284 13.8216C14.0783 14.5717 13.0609 14.9932 12 14.9932C10.9391 14.9932 9.92173 14.5717 9.17158 13.8216C8.42143 13.0714 8.00001 12.054 8.00001 10.9932" stroke="#3A494E" stroke-linecap="round" stroke-linejoin="round"/>
</svg>
