<svg width="24" height="25" viewBox="0 0 24 25" fill="none" xmlns="http://www.w3.org/2000/svg">
<path d="M12 13.9932C12.5523 13.9932 13 13.5454 13 12.9932C13 12.4409 12.5523 11.9932 12 11.9932C11.4477 11.9932 11 12.4409 11 12.9932C11 13.5454 11.4477 13.9932 12 13.9932Z" stroke="#3A494E" stroke-linecap="round" stroke-linejoin="round"/>
<path d="M19 13.9932C19.5523 13.9932 20 13.5454 20 12.9932C20 12.4409 19.5523 11.9932 19 11.9932C18.4477 11.9932 18 12.4409 18 12.9932C18 13.5454 18.4477 13.9932 19 13.9932Z" stroke="#3A494E" stroke-linecap="round" stroke-linejoin="round"/>
<path d="M5 13.9932C5.55228 13.9932 6 13.5454 6 12.9932C6 12.4409 5.55228 11.9932 5 11.9932C4.44772 11.9932 4 12.4409 4 12.9932C4 13.5454 4.44772 13.9932 5 13.9932Z" stroke="#3A494E" stroke-linecap="round" stroke-linejoin="round"/>
</svg>
