<svg width="24" height="25" viewBox="0 0 24 25" fill="none" xmlns="http://www.w3.org/2000/svg">
<path d="M20.84 5.60316C20.3292 5.09216 19.7228 4.6868 19.0554 4.41024C18.3879 4.13368 17.6725 3.99133 16.95 3.99133C16.2275 3.99133 15.5121 4.13368 14.8446 4.41024C14.1772 4.6868 13.5708 5.09216 13.06 5.60316L12 6.66316L10.94 5.60316C9.9083 4.57147 8.50903 3.99187 7.05 3.99187C5.59096 3.99187 4.19169 4.57147 3.16 5.60316C2.1283 6.63485 1.54871 8.03413 1.54871 9.49316C1.54871 10.9522 2.1283 12.3515 3.16 13.3832L4.22 14.4432L12 22.2232L19.78 14.4432L20.84 13.3832C21.351 12.8724 21.7563 12.266 22.0329 11.5985C22.3095 10.9311 22.4518 10.2156 22.4518 9.49316C22.4518 8.77067 22.3095 8.05526 22.0329 7.3878C21.7563 6.72034 21.351 6.11391 20.84 5.60316V5.60316Z" stroke="#3A494E" stroke-linecap="round" stroke-linejoin="round"/>
</svg>
