<svg width="24" height="25" viewBox="0 0 24 25" fill="none" xmlns="http://www.w3.org/2000/svg">
<path d="M14 2.99316H6C5.46957 2.99316 4.96086 3.20388 4.58579 3.57895C4.21071 3.95402 4 4.46273 4 4.99316V20.9932C4 21.5236 4.21071 22.0323 4.58579 22.4074C4.96086 22.7824 5.46957 22.9932 6 22.9932H18C18.5304 22.9932 19.0391 22.7824 19.4142 22.4074C19.7893 22.0323 20 21.5236 20 20.9932V8.99316L14 2.99316Z" stroke="#3A494E" stroke-linecap="round" stroke-linejoin="round"/>
<path d="M14 2.99316V8.99316H20" stroke="#3A494E" stroke-linecap="round" stroke-linejoin="round"/>
<path d="M16 13.9932H8" stroke="#3A494E" stroke-linecap="round" stroke-linejoin="round"/>
<path d="M16 17.9932H8" stroke="#3A494E" stroke-linecap="round" stroke-linejoin="round"/>
<path d="M10 9.99316H9H8" stroke="#3A494E" stroke-linecap="round" stroke-linejoin="round"/>
</svg>
